<svg xmlns="http://www.w3.org/2000/svg" width="358" height="335" viewBox="0 0 358 335" version="1.1"><path d="M 170.999 71.799 L 171.497 97.500 171.767 72.568 C 171.915 58.855, 171.690 47.290, 171.268 46.866 C 170.846 46.443, 170.724 57.663, 170.999 71.799 M 186.435 72 C 186.435 86.025, 186.575 91.763, 186.747 84.750 C 186.919 77.738, 186.919 66.263, 186.747 59.250 C 186.575 52.238, 186.435 57.975, 186.435 72 M 279 71.500 C 280.866 73.425, 282.617 75, 282.892 75 C 283.167 75, 281.866 73.425, 280 71.500 C 278.134 69.575, 276.383 68, 276.108 68 C 275.833 68, 277.134 69.575, 279 71.500 M 90.405 80.250 L 88.500 82.500 90.750 80.595 C 91.987 79.547, 93 78.535, 93 78.345 C 93 77.545, 92.195 78.136, 90.405 80.250 M 251.250 97.728 C 253.313 97.944, 256.688 97.944, 258.750 97.728 C 260.813 97.513, 259.125 97.336, 255 97.336 C 250.875 97.336, 249.188 97.513, 251.250 97.728 M 186.392 126 C 186.392 133.425, 186.549 136.463, 186.742 132.750 C 186.934 129.037, 186.934 122.963, 186.742 119.250 C 186.549 115.537, 186.392 118.575, 186.392 126 M 122.158 152 C 122.158 153.375, 122.385 153.938, 122.662 153.250 C 122.940 152.563, 122.940 151.438, 122.662 150.750 C 122.385 150.063, 122.158 150.625, 122.158 152 M 265.320 159.796 L 265.274 168.091 267.637 165.871 C 270.471 163.209, 270.840 161.930, 268.044 164.460 C 266.122 166.200, 266.082 166.103, 265.727 158.865 L 265.366 151.500 265.320 159.796 M 68.750 153.662 C 69.438 153.940, 70.563 153.940, 71.250 153.662 C 71.938 153.385, 71.375 153.158, 70 153.158 C 68.625 153.158, 68.063 153.385, 68.750 153.662 M 161.269 153.693 C 162.242 153.947, 163.592 153.930, 164.269 153.656 C 164.946 153.382, 164.150 153.175, 162.500 153.195 C 160.850 153.215, 160.296 153.439, 161.269 153.693 M 168.762 153.707 C 170.006 153.946, 171.806 153.937, 172.762 153.687 C 173.718 153.437, 172.700 153.241, 170.500 153.252 C 168.300 153.263, 167.518 153.468, 168.762 153.707 M 57.407 170 C 57.407 179.075, 57.559 182.787, 57.744 178.250 C 57.929 173.713, 57.929 166.287, 57.744 161.750 C 57.559 157.213, 57.407 160.925, 57.407 170 M 251.428 176 C 251.428 188.375, 251.571 193.438, 251.747 187.250 C 251.922 181.063, 251.922 170.938, 251.747 164.750 C 251.571 158.563, 251.428 163.625, 251.428 176 M 81.768 162.725 C 83.565 162.947, 86.265 162.943, 87.768 162.715 C 89.271 162.486, 87.800 162.304, 84.500 162.310 C 81.200 162.315, 79.971 162.502, 81.768 162.725 M 125.250 162.728 C 127.313 162.944, 130.688 162.944, 132.750 162.728 C 134.813 162.513, 133.125 162.336, 129 162.336 C 124.875 162.336, 123.188 162.513, 125.250 162.728 M 143.954 164.086 C 143.340 165.233, 143.026 166.360, 143.257 166.590 C 143.487 166.820, 144.189 165.882, 144.816 164.504 C 146.194 161.480, 145.523 161.154, 143.954 164.086 M 93.405 166.250 L 91.500 168.500 93.750 166.595 C 95.864 164.805, 96.455 164, 95.655 164 C 95.465 164, 94.453 165.012, 93.405 166.250 M 324.500 166 C 325.495 167.100, 326.535 168, 326.810 168 C 327.085 168, 326.495 167.100, 325.500 166 C 324.505 164.900, 323.465 164, 323.190 164 C 322.915 164, 323.505 164.900, 324.500 166 M 307.345 172.543 C 307.019 173.392, 306.976 174.310, 307.249 174.583 C 307.523 174.856, 307.986 174.161, 308.279 173.040 C 308.903 170.657, 308.210 170.289, 307.345 172.543 M 115.395 185.500 C 115.396 193.200, 115.553 196.218, 115.743 192.206 C 115.934 188.195, 115.932 181.895, 115.741 178.206 C 115.549 174.518, 115.393 177.800, 115.395 185.500 M 265.667 172.667 C 264.744 173.589, 264.823 190.999, 265.750 191.002 C 266.163 191.004, 266.356 186.954, 266.179 182.002 L 265.858 173 269.379 173 C 271.678 173, 273.255 173.608, 273.920 174.750 C 274.481 175.713, 274.953 176.028, 274.970 175.450 C 275.049 172.706, 267.797 170.536, 265.667 172.667 M 289.286 178.500 C 289.294 181.250, 289.488 182.256, 289.718 180.736 C 289.947 179.216, 289.941 176.966, 289.704 175.736 C 289.467 174.506, 289.279 175.750, 289.286 178.500 M 222.310 180.500 C 222.315 183.800, 222.502 185.029, 222.725 183.232 C 222.947 181.435, 222.943 178.735, 222.715 177.232 C 222.486 175.729, 222.304 177.200, 222.310 180.500 M 246.310 180.500 C 246.315 183.800, 246.502 185.029, 246.725 183.232 C 246.947 181.435, 246.943 178.735, 246.715 177.232 C 246.486 175.729, 246.304 177.200, 246.310 180.500 M 293.158 177 C 293.158 178.375, 293.385 178.938, 293.662 178.250 C 293.940 177.563, 293.940 176.438, 293.662 175.750 C 293.385 175.063, 293.158 175.625, 293.158 177 M 43.272 180 C 43.272 182.475, 43.467 183.488, 43.706 182.250 C 43.944 181.012, 43.944 178.988, 43.706 177.750 C 43.467 176.512, 43.272 177.525, 43.272 180 M 309.264 177.718 C 310.784 177.947, 313.034 177.941, 314.264 177.704 C 315.494 177.467, 314.250 177.279, 311.500 177.286 C 308.750 177.294, 307.744 177.488, 309.264 177.718 M 232.232 181 C 232.232 182.925, 232.438 183.713, 232.689 182.750 C 232.941 181.787, 232.941 180.213, 232.689 179.250 C 232.438 178.287, 232.232 179.075, 232.232 181 M 71.195 184.500 C 71.215 186.150, 71.439 186.704, 71.693 185.731 C 71.947 184.758, 71.930 183.408, 71.656 182.731 C 71.382 182.054, 71.175 182.850, 71.195 184.500 M 92.272 190 C 92.272 192.475, 92.467 193.488, 92.706 192.250 C 92.944 191.012, 92.944 188.988, 92.706 187.750 C 92.467 186.512, 92.272 187.525, 92.272 190 M 229.750 189.167 C 228.787 190.175, 228.395 191, 228.878 191 C 229.886 191, 232.483 188.108, 231.893 187.643 C 231.677 187.472, 230.713 188.158, 229.750 189.167 M 224.226 189.579 C 225.176 190.570, 226.168 191.166, 226.431 190.903 C 226.694 190.640, 225.917 189.829, 224.705 189.100 C 222.598 187.835, 222.577 187.857, 224.226 189.579 M 313.750 189.723 C 315.538 189.945, 318.462 189.945, 320.250 189.723 C 322.038 189.502, 320.575 189.320, 317 189.320 C 313.425 189.320, 311.962 189.502, 313.750 189.723 M 78.404 197 C 78.493 199.306, 78.888 199.508, 83.500 199.602 L 88.500 199.704 83.811 199.300 C 79.933 198.965, 79.052 198.516, 78.715 196.698 C 78.378 194.881, 78.324 194.933, 78.404 197 M 192.250 199.728 C 194.313 199.944, 197.688 199.944, 199.750 199.728 C 201.813 199.513, 200.125 199.336, 196 199.336 C 191.875 199.336, 190.188 199.513, 192.250 199.728 M 258.750 199.662 C 259.438 199.940, 260.563 199.940, 261.250 199.662 C 261.938 199.385, 261.375 199.158, 260 199.158 C 258.625 199.158, 258.063 199.385, 258.750 199.662 M 226.269 200.693 C 227.242 200.947, 228.592 200.930, 229.269 200.656 C 229.946 200.382, 229.150 200.175, 227.500 200.195 C 225.850 200.215, 225.296 200.439, 226.269 200.693 M 311.750 200.662 C 312.438 200.940, 313.563 200.940, 314.250 200.662 C 314.938 200.385, 314.375 200.158, 313 200.158 C 311.625 200.158, 311.063 200.385, 311.750 200.662 M 171.392 220 C 171.392 227.425, 171.549 230.463, 171.742 226.750 C 171.934 223.037, 171.934 216.963, 171.742 213.250 C 171.549 209.537, 171.392 212.575, 171.392 220 M 88.296 248.744 C 92.583 248.932, 99.333 248.931, 103.296 248.742 C 107.258 248.552, 103.750 248.399, 95.500 248.400 C 87.250 248.401, 84.008 248.556, 88.296 248.744 M 152.789 248.741 C 156.248 248.937, 161.648 248.936, 164.789 248.738 C 167.930 248.540, 165.100 248.380, 158.500 248.382 C 151.900 248.384, 149.330 248.546, 152.789 248.741 M 257.500 248.670 C 269.655 249.398, 282.004 249.438, 282.002 248.750 C 282.001 248.338, 275.363 248.083, 267.250 248.185 C 259.137 248.287, 254.750 248.505, 257.500 248.670 M 170.999 274.201 C 170.724 288.337, 170.846 299.557, 171.268 299.134 C 171.690 298.710, 171.915 287.145, 171.767 273.432 L 171.497 248.500 170.999 274.201 M 186.208 273.691 C 186.093 287.546, 186.338 299.091, 186.750 299.347 C 187.162 299.603, 187.384 292.317, 187.243 283.156 C 186.756 251.669, 186.415 248.546, 186.208 273.691 M 90 252.134 C 90 253.090, 91.026 257.300, 92.596 262.785 C 93.058 264.397, 98.801 261.683, 99.658 259.448 C 99.964 258.651, 101.080 258, 102.138 258 C 105.005 258, 105.596 255.152, 103.222 252.778 C 100.931 250.487, 97.409 251.017, 98.365 253.508 C 99.138 255.522, 98.305 255.385, 95.273 253 C 92.461 250.788, 90 250.384, 90 252.134 M 61.160 265.240 C 59.351 267.049, 59.795 268.891, 62 268.725 C 63.170 268.637, 64 267.858, 64 266.846 C 64 264.573, 62.612 263.788, 61.160 265.240 M 73.500 270 C 74.495 271.100, 75.535 272, 75.810 272 C 76.085 272, 75.495 271.100, 74.500 270 C 73.505 268.900, 72.465 268, 72.190 268 C 71.915 268, 72.505 268.900, 73.500 270 M 282.924 270.750 L 280.500 273.500 283.250 271.076 C 284.762 269.742, 286 268.505, 286 268.326 C 286 267.541, 285.190 268.180, 282.924 270.750 M 71 277.583 C 71 279.349, 73.153 279.042, 73.771 277.188 C 73.989 276.534, 73.454 276, 72.583 276 C 71.713 276, 71 276.712, 71 277.583 M 273.924 279.750 L 271.500 282.500 274.250 280.076 C 275.762 278.742, 277 277.505, 277 277.326 C 277 276.541, 276.190 277.180, 273.924 279.750 M 190.750 315.662 C 191.438 315.940, 192.563 315.940, 193.250 315.662 C 193.938 315.385, 193.375 315.158, 192 315.158 C 190.625 315.158, 190.063 315.385, 190.750 315.662 M 9.426 317.623 C 7.824 318.454, 5.048 320.252, 3.257 321.618 C 0.441 323.765, -0 324.705, -0 328.551 C -0 330.998, 0.279 333, 0.619 333 C 1.993 333, 12.662 325.989, 14.879 323.629 C 18.956 319.289, 14.877 314.795, 9.426 317.623 M 9.500 321 C 9.160 321.550, 9.809 322, 10.941 322 C 12.073 322, 13 321.550, 13 321 C 13 320.450, 12.352 320, 11.559 320 C 10.766 320, 9.840 320.450, 9.500 321" stroke="none" fill="#f0f0f0" fill-rule="evenodd"/><path d="M 165.500 30.588 C 143.735 33.716, 131.108 37.407, 115.500 45.204 C 80.632 62.622, 54.817 92.413, 43.024 128.840 C 41.361 133.977, 40 138.365, 40 138.590 C 40 138.816, 43.511 139, 47.803 139 L 55.606 139 57.929 131.750 C 59.206 127.763, 61.552 121.912, 63.140 118.750 L 66.029 113 88.014 113 C 100.106 113, 109.993 113.338, 109.985 113.750 C 109.976 114.162, 109.076 119.414, 107.985 125.419 C 106.893 131.425, 106 136.938, 106 137.669 C 106 138.657, 107.903 139, 113.373 139 L 120.746 139 122.420 129.750 C 123.341 124.662, 124.541 118.813, 125.086 116.750 L 126.077 113 148.539 113 L 171 113 171 126 L 171 139 178.500 139 L 186 139 186 126 L 186 113 208.892 113 L 231.785 113 233.366 119.750 C 234.667 125.301, 237 137.458, 237 138.684 C 237 138.858, 240.375 139, 244.500 139 C 250.076 139, 252 138.659, 252 137.669 C 252 136.938, 251.107 131.425, 250.015 125.419 C 248.924 119.414, 248.024 114.162, 248.015 113.750 C 248.007 113.338, 257.894 113, 269.986 113 L 291.971 113 294.860 118.750 C 296.448 121.912, 298.794 127.763, 300.071 131.750 L 302.394 139 310.119 139 L 317.845 139 315.538 131.750 C 308.258 108.869, 297.886 91.278, 281.679 74.326 C 269.532 61.620, 258.142 53.242, 242.500 45.508 C 221.100 34.927, 206.181 31.176, 183 30.549 C 175.025 30.334, 167.150 30.351, 165.500 30.588 M 165 49.006 C 158.462 52.374, 149.915 60.912, 143.707 70.276 C 139.728 76.279, 133.459 89.412, 131.538 95.771 L 130.852 98.042 151.176 97.771 L 171.500 97.500 171.768 72.568 C 171.915 58.855, 171.690 47.306, 171.268 46.904 C 170.846 46.501, 168.025 47.447, 165 49.006 M 186.233 72.250 L 186.500 97.500 206.824 97.771 L 227.148 98.042 226.477 95.771 C 224.883 90.382, 215.657 72.273, 211.633 66.638 C 206.264 59.119, 198.658 51.887, 193.182 49.093 C 185.558 45.203, 185.933 43.952, 186.233 72.250 M 133 53.432 C 121.612 57.632, 105.902 67.158, 94.487 76.784 C 88.254 82.040, 76 95.680, 76 97.361 C 76 97.713, 84.664 98, 95.253 98 L 114.507 98 116.854 91.250 C 120.403 81.043, 126.371 69.068, 132.390 60.075 C 135.363 55.634, 137.504 52.032, 137.148 52.070 C 136.791 52.109, 134.925 52.722, 133 53.432 M 220.586 53.143 C 221.046 53.889, 223.298 57.200, 225.591 60.500 C 230.750 67.924, 235.714 77.803, 240.038 89.250 L 243.344 98 262.707 98 C 284.932 98, 283.933 98.790, 274.834 88.421 C 263.370 75.358, 248.768 64.472, 232.740 57.040 C 222.342 52.219, 219.444 51.290, 220.586 53.143 M 124.580 147.912 C 122.071 150.684, 122.884 155.094, 126.250 156.968 C 128.720 158.344, 129.280 158.344, 131.750 156.968 C 137.097 153.991, 135.094 146, 129 146 C 127.520 146, 125.532 146.860, 124.580 147.912 M 190.250 151.662 C 189.300 152.046, 189 157.786, 189 175.583 L 189 199 196 199 L 203 199 203 175 L 203 151 197.250 151.079 C 194.088 151.122, 190.938 151.385, 190.250 151.662 M 252.667 151.667 C 252.300 152.033, 252 162.568, 252 175.076 L 252 197.819 259.221 199.037 C 267.876 200.497, 280.197 199.756, 283.526 197.575 C 286.688 195.503, 289 187.540, 289 178.720 C 289 170.256, 287.065 165.733, 282.522 163.577 C 277.171 161.038, 272.596 161.537, 268.535 165.104 L 265 168.207 265 159.604 L 265 151 259.167 151 C 255.958 151, 253.033 151.300, 252.667 151.667 M 160.206 154.046 C 148.569 155.686, 142.028 164.131, 142.010 177.538 C 141.997 186.974, 144.673 192.360, 151.427 196.488 C 156.037 199.306, 156.969 199.495, 165.927 199.420 C 172.384 199.366, 176.721 198.813, 179.250 197.721 L 183 196.102 183 185.051 L 183 174 176 174 L 169 174 169 181.441 C 169 185.534, 168.620 189.117, 168.156 189.403 C 167.692 189.690, 165.631 189.461, 163.576 188.893 C 158.506 187.493, 156.656 183.089, 157.188 173.681 C 157.699 164.628, 158.568 164, 170.566 164 L 179.750 164 180.375 160.875 C 181.477 155.365, 181.327 155.179, 175.250 154.519 C 172.088 154.176, 168.600 153.761, 167.500 153.597 C 166.400 153.434, 163.118 153.636, 160.206 154.046 M 29.187 171.930 C 29.536 191.899, 29.969 193.297, 37.105 197.500 C 42.068 200.424, 58.936 200.406, 64 197.472 C 70.142 193.914, 71.322 189.884, 71.819 170.771 L 72.256 154 65.128 154 L 58 154 58 169.435 C 58 177.924, 57.561 186.024, 57.025 187.435 C 56.161 189.707, 55.489 190, 51.147 190 C 43.795 190, 43.556 189.411, 43.164 170.349 L 42.828 154 35.851 154 L 28.874 154 29.187 171.930 M 98.500 163.103 C 97.400 163.746, 95.464 165.212, 94.197 166.360 C 92.234 168.140, 91.757 168.231, 90.963 166.974 C 90.450 166.163, 90.024 164.938, 90.015 164.250 C 90.005 163.403, 88.225 163, 84.500 163 L 79 163 79 181 L 79 199 85.500 199 L 92 199 92 186.519 C 92 174.181, 92.027 174.031, 94.398 173.436 C 95.717 173.105, 97.855 172.984, 99.148 173.167 C 101.460 173.494, 101.505 173.719, 101.780 186.250 L 102.060 199 108.530 199 L 115 199 115 182.655 C 115 167.876, 114.818 166.145, 113.103 164.593 C 110.734 162.450, 101.267 161.483, 98.500 163.103 M 217.500 163.733 C 213.404 165.180, 212.144 166.223, 210.529 169.500 C 207.745 175.149, 207.749 187.151, 210.536 192.002 C 215.716 201.018, 233.216 202.920, 241.581 195.377 C 244.606 192.649, 246.001 187.666, 245.996 179.601 C 245.992 171.320, 243.985 167.078, 238.802 164.398 C 233.981 161.905, 223.590 161.580, 217.500 163.733 M 302.670 163.623 C 298.381 164.941, 297.607 165.633, 295.759 169.804 C 292.907 176.241, 292.795 187.195, 295.534 191.819 C 296.615 193.645, 298.991 196.061, 300.812 197.189 C 305.034 199.804, 314.675 200.624, 322.377 199.026 C 328.158 197.825, 328.207 197.786, 327.606 194.782 C 327.273 193.114, 327 191.174, 327 190.470 C 327 189.492, 325.141 189.317, 319.134 189.728 C 312.036 190.215, 311.059 190.059, 309.134 188.134 C 307.960 186.960, 307 185.550, 307 185 C 307 184.403, 310.927 183.994, 316.750 183.985 C 322.113 183.976, 327.158 183.553, 327.963 183.044 C 330.147 181.663, 327.928 169.617, 324.895 166.388 C 320.766 161.993, 311.662 160.861, 302.670 163.623 M 122 181 L 122 199 129 199 L 136 199 136 181 L 136 163 129 163 L 122 163 122 181 M 309.250 171.031 C 307.610 171.690, 307 172.758, 307 174.968 C 307 177.895, 307.156 178, 311.500 178 C 315.821 178, 316 177.882, 316 175.035 C 316 173.127, 315.310 171.701, 314.066 171.035 C 311.852 169.850, 312.187 169.851, 309.250 171.031 M 222.975 173.565 C 221.614 177.146, 221.784 185.013, 223.288 188 C 224.809 191.023, 229.074 191.820, 231.041 189.450 C 232.862 187.257, 232.893 174.781, 231.083 172.601 C 230.353 171.720, 228.449 171, 226.853 171 C 224.658 171, 223.713 171.625, 222.975 173.565 M 265.667 172.667 C 265.300 173.033, 265 177.333, 265 182.221 L 265 191.110 269.750 190.805 L 274.500 190.500 274.794 182.655 C 274.978 177.732, 274.653 174.287, 273.921 173.405 C 272.735 171.976, 266.881 171.452, 265.667 172.667 M 40 207.410 C 40 209.137, 46.635 227.505, 49.494 233.693 C 54.265 244.019, 64.184 258.706, 73.145 268.714 C 94.130 292.148, 122.025 307.741, 153.500 313.629 C 167.982 316.339, 192.832 316.120, 206.688 313.162 C 258.413 302.120, 298.296 266.698, 314.940 217.018 C 316.623 211.996, 318 207.687, 318 207.443 C 318 207.199, 314.482 207, 310.183 207 L 302.365 207 300.574 212.750 C 299.589 215.912, 297.286 221.762, 295.456 225.750 L 292.130 233 269.940 233 L 247.750 233 248.433 229.750 C 249.897 222.784, 251.997 210.413, 251.999 208.750 C 252 207.241, 250.983 207, 244.627 207 L 237.254 207 235.580 216.250 C 234.659 221.338, 233.459 227.188, 232.914 229.250 L 231.923 233 209.461 233 L 187 233 187 220 L 187 207 179.500 207 L 172 207 172 220 L 172 233 149.108 233 L 126.215 233 124.635 226.250 C 123.766 222.537, 122.534 216.688, 121.897 213.250 L 120.740 207 113.370 207 C 107.017 207, 106 207.242, 106.001 208.750 C 106.003 210.413, 108.103 222.784, 109.567 229.750 L 110.250 233 88.060 233 L 65.870 233 62.544 225.750 C 60.714 221.762, 58.411 215.912, 57.426 212.750 L 55.635 207 47.817 207 C 43.518 207, 40 207.184, 40 207.410 M 77.086 250.160 C 78.984 253.708, 94.995 269.827, 101.410 274.649 C 110.069 281.158, 119.495 286.550, 129.053 290.463 C 133.665 292.351, 137.593 293.740, 137.782 293.551 C 137.971 293.362, 136.293 290.798, 134.053 287.854 C 128.971 281.175, 122.254 268.204, 117.947 256.750 L 114.656 248 95.293 248 L 75.930 248 77.086 250.160 M 131.547 250.229 C 135.742 263.946, 145.552 280.434, 155.103 289.822 C 160.447 295.074, 170.795 300.699, 171.540 298.756 C 171.813 298.045, 171.916 286.446, 171.768 272.981 L 171.500 248.500 151.176 248.229 L 130.852 247.958 131.547 250.229 M 186.667 248.667 C 185.808 249.525, 185.789 298.456, 186.647 299.314 C 187.003 299.669, 189.959 298.540, 193.217 296.804 C 200.349 293.002, 209.834 283.061, 215.571 273.374 C 219.172 267.295, 227 250.354, 227 248.642 C 227 247.787, 187.522 247.811, 186.667 248.667 M 241.091 254.750 C 236.883 266.626, 229.728 280.361, 223.296 288.907 C 221.473 291.330, 220.157 293.490, 220.373 293.707 C 221.211 294.545, 240.893 285.159, 248.269 280.404 C 252.542 277.649, 259.067 272.733, 262.769 269.480 C 269.563 263.510, 281.124 251.129, 281.800 249.099 C 282.058 248.326, 276.435 248, 262.824 248 L 243.482 248 241.091 254.750" stroke="none" fill="#3b3b3b" fill-rule="evenodd"/></svg>